<svg width="126" height="39" viewBox="0 0 126 39" fill="none" xmlns="http://www.w3.org/2000/svg">
<rect x="1" y="1" width="124" height="37" rx="7" stroke="#F0F6FC" stroke-width="2"/>
<path d="M25.1016 20.2656C25.1016 23.3359 23.2422 25.1953 20.1016 25.1953C16.7344 25.1953 14.6719 22.9922 14.6719 19.3281C14.6719 15.7188 16.7344 13.5312 20.0469 13.5312C22.6797 13.5312 24.6641 15.0859 25 17.3672H22.6328C22.2891 16.1875 21.3281 15.4844 20.0547 15.4844C18.1953 15.4844 17.0781 16.8984 17.0781 19.2969C17.0781 21.7422 18.2656 23.2344 20.1406 23.2344C21.6797 23.2344 22.75 22.2891 22.7969 20.8906L22.8047 20.7109H20.3516V18.9922H25.1016V20.2656ZM34.1328 23.0469V25H26.6641V13.7266H34.1328V15.6719H29.0234V18.3906H33.8438V20.2031H29.0234V23.0469H34.1328ZM40.8906 25H38.5312V15.6719H35.2734V13.7266H44.1562V15.6719H40.8906V25ZM55.9219 23.0469V25H48.6328V13.7266H50.9922V23.0469H55.9219ZM59.6797 25H57.3203V13.7266H59.6797V25ZM66.5391 25.1953C63.2578 25.1953 61.2031 23 61.2031 19.3594C61.2031 15.7266 63.2734 13.5312 66.5391 13.5312C69.25 13.5312 71.3125 15.25 71.4922 17.7734H69.1953C68.9766 16.3906 67.9141 15.4844 66.5391 15.4844C64.7578 15.4844 63.6094 16.9766 63.6094 19.3516C63.6094 21.7578 64.7422 23.2422 66.5469 23.2422C67.9453 23.2422 68.9531 22.4219 69.2031 21.0859H71.5C71.2344 23.6016 69.3047 25.1953 66.5391 25.1953ZM80.4297 23.0469V25H72.9609V13.7266H80.4297V15.6719H75.3203V18.3906H80.1406V20.2031H75.3203V23.0469H80.4297ZM84.3906 25H82.1328V13.7266H84.1016L89.3672 21.0703H89.4297V13.7266H91.6875V25H89.7344L84.4609 17.6172H84.3906V25ZM93.1484 21.7891H95.4219C95.5312 22.7188 96.5 23.3281 97.75 23.3281C99.0078 23.3281 99.8672 22.7266 99.8672 21.8984C99.8672 21.1641 99.3281 20.7578 97.9688 20.4531L96.5 20.1328C94.4219 19.6875 93.3984 18.6328 93.3984 16.9844C93.3984 14.9062 95.1953 13.5312 97.7109 13.5312C100.336 13.5312 101.984 14.8828 102.023 16.9219H99.8125C99.7344 15.9688 98.8984 15.3906 97.7188 15.3906C96.5547 15.3906 95.7734 15.9453 95.7734 16.7812C95.7734 17.4766 96.3203 17.8672 97.6172 18.1641L98.9844 18.4531C101.242 18.9375 102.227 19.9062 102.227 21.625C102.227 23.8125 100.453 25.1953 97.6562 25.1953C94.9453 25.1953 93.2188 23.9062 93.1484 21.7891ZM111.148 23.0469V25H103.68V13.7266H111.148V15.6719H106.039V18.3906H110.859V20.2031H106.039V23.0469H111.148Z" fill="#F0F6FC"/>
</svg>
